<svg width="145" height="145" viewBox="0 0 145 145" fill="none" xmlns="http://www.w3.org/2000/svg">
<circle cx="72.5" cy="72.5" r="72.5" fill="#F7931A"/>
<path d="M43.8596 116.216C34.7022 113.191 28.2014 105.912 26.5485 96.8324C25.0451 88.574 28.9316 79.5326 36.4518 73.7946C38.0608 72.5669 38.0926 72.4657 37.0528 71.8837C34.9195 70.6899 30.9545 66.6459 29.524 64.2048C27.5483 60.8336 25.9277 55.3934 25.9445 52.189C26.0314 35.6204 43.0115 23.8791 59.0859 29.2727C64.9081 31.8715 68.8345 34.4501 72.2456 39.437L75.6977 35.9489C80.8874 30.7051 86.7158 28.2353 93.97 28.2059C103.35 28.168 111.828 33.1418 116.037 41.152C121.17 50.9206 119.421 61.2631 111.296 69.1948L107.483 72.9164L109.741 74.6019C113.026 77.0545 116.298 81.9379 117.66 86.422C119.125 91.2447 118.888 96.8951 117.015 101.796C115.456 105.877 110.349 111.532 106.167 113.808C95.844 119.426 83.1032 117.415 75.1257 108.908L72.6235 106.24L69.2276 109.636C62.715 116.149 51.138 118.341 43.8596 116.216ZM57.5964 104.406C60.7891 102.6 62.1385 100.361 64.1023 97.4479L60.6638 95.7975C56.0882 93.6015 51.0294 88.8292 48.7563 84.5645C47.7482 82.673 46.7262 81.1255 46.4851 81.1255C46.2441 81.1255 44.8667 81.9073 43.4241 82.8628C38.6328 86.0364 36.5627 92.7994 38.7672 98.0768C39.9918 101.008 42.2177 103.224 45.5672 104.845C49.2166 106.611 53.5952 106.451 57.5964 104.406ZM97.6859 105.26C102.113 103.958 105.813 100.064 106.796 95.6723C107.374 91.7775 107.132 88.4934 104.549 85.2909C103.401 83.9269 99.4776 81.1255 98.7154 81.1255C98.1713 81.8776 97.5575 82.463 96.7291 84.0977C94.661 88.179 89.0387 93.6369 84.8404 95.6388C82.9621 96.5344 81.3321 97.3357 81.2181 97.4195C80.719 97.7863 83.7029 101.776 85.5037 103.149C89.4641 105.841 93.6264 106.442 97.6859 105.26ZM79.7178 86.6699C85.2406 83.8482 88.5401 78.4998 88.5401 72.3694C88.5401 65.6247 85.3925 60.7151 79.1486 57.7205C68.699 52.7088 56.5267 60.3736 56.4421 72.0187C56.3939 78.6594 59.7205 83.8156 66.0576 86.9224C69.028 88.3787 69.9543 88.5659 73.1723 88.3604C75.6487 88.2021 77.8128 87.6433 79.7178 86.6699ZM48.6621 61.0387C50.4957 57.1202 55.5991 52.0833 59.9727 49.8755C61.9107 48.8972 63.4963 47.7661 63.4963 47.3618C63.4963 45.1991 58.8427 40.9772 55.016 39.6682C46.9478 36.9083 37.7207 43.3945 37.7207 51.826C37.7207 55.0965 39.3318 59.1649 41.3633 61.0242C42.8614 62.3953 45.8165 64.0543 46.7055 64.0233C47.0186 64.0124 47.899 62.6693 48.6621 61.0387ZM102.248 62.2004C105.663 59.5829 107.038 56.6688 107.038 52.0528C107.038 47.0532 104.989 43.5947 100.543 41.0945C94.0103 37.4197 85.3959 39.8283 82.0701 46.2595L81.1819 47.9772L85.0033 49.8506C89.6034 52.1057 94.6555 57.025 96.5786 61.1217C97.3961 62.863 98.3082 64.0128 98.8833 64.0269C99.4068 64.0396 100.921 63.2178 102.248 62.2004Z" fill="black"/>
<path d="M88.2939 76.51C86.1108 85.2664 77.242 90.5954 68.4846 88.4118C59.7307 86.2287 54.4016 77.3594 56.5858 68.6035C58.7678 59.846 67.6367 54.5165 76.3916 56.6996C85.1485 58.8827 90.477 67.753 88.2939 76.51Z" fill="#F7931A"/>
<path d="M79.6462 70.2275C79.9716 68.0526 78.3156 66.8834 76.0513 66.1034L76.7858 63.1572L74.9924 62.7102L74.2773 65.5788C73.8058 65.4613 73.3216 65.3505 72.8405 65.2407L73.5607 62.3532L71.7683 61.9062L71.0333 64.8515C70.6431 64.7626 70.26 64.6747 69.8881 64.5823L69.8902 64.5731L67.4169 63.9555L66.9398 65.871C66.9398 65.871 68.2704 66.1759 68.2424 66.1948C68.9687 66.3762 69.1 66.8568 69.078 67.2379L68.2413 70.5942C68.2914 70.607 68.3563 70.6254 68.4278 70.654C68.368 70.6392 68.3042 70.6228 68.2383 70.607L67.0655 75.3088C66.9766 75.5295 66.7514 75.8605 66.2436 75.7348C66.2615 75.7609 64.9401 75.4094 64.9401 75.4094L64.0498 77.4623L66.3836 78.0441C66.8178 78.1529 67.2432 78.2668 67.6621 78.374L66.9199 81.354L68.7113 81.8009L69.4463 78.8527C69.9356 78.9855 70.4106 79.108 70.8755 79.2235L70.143 82.158L71.9364 82.6049L72.6785 79.6306C75.7366 80.2093 78.0362 79.9759 79.0041 77.21C79.7841 74.9829 78.9653 73.6983 77.3563 72.8606C78.5281 72.5904 79.4107 71.8196 79.6462 70.2275ZM75.5487 75.9733C74.9945 78.2004 71.2448 76.9964 70.0291 76.6946L71.0139 72.7467C72.2296 73.0501 76.1279 73.6508 75.5487 75.9733ZM76.1034 70.1953C75.5977 72.2211 72.4768 71.1919 71.4644 70.9395L72.3573 67.3589C73.3696 67.6112 76.63 68.0822 76.1034 70.1953Z" fill="black"/>
</svg>
